<?xml version="1.0" standalone="no"?>
<!DOCTYPE svg PUBLIC "-//W3C//DTD SVG 20010904//EN"
 "http://www.w3.org/TR/2001/REC-SVG-20010904/DTD/svg10.dtd">
<svg version="1.0" xmlns="http://www.w3.org/2000/svg"
 width="416.000000pt" height="416.000000pt" viewBox="0 0 416.000000 416.000000"
 preserveAspectRatio="xMidYMid meet">

<g transform="translate(0.000000,416.000000) scale(0.100000,-0.100000)"
fill="#000000" stroke="none">
<path d="M1320 3360 c-11 -11 -20 -26 -20 -32 0 -23 101 -272 117 -290 9 -10
27 -18 40 -18 26 0 63 32 63 54 0 24 -99 268 -117 288 -21 24 -58 23 -83 -2z"/>
<path d="M1819 3360 c-9 -5 -43 -70 -74 -144 -62 -146 -66 -177 -20 -198 48
-22 67 -1 128 140 31 72 57 142 57 156 0 41 -53 68 -91 46z"/>
<path d="M977 3032 c-25 -27 -21 -69 7 -87 38 -25 252 -115 274 -115 47 0 71
71 35 102 -26 22 -250 118 -277 118 -13 0 -30 -8 -39 -18z"/>
<path d="M2046 2965 c-71 -29 -133 -60 -138 -67 -15 -23 -4 -60 23 -80 l26
-20 134 52 c74 29 142 60 152 68 36 32 5 103 -45 101 -13 0 -81 -25 -152 -54z"/>
<path d="M1531 2899 c-98 -39 -143 -136 -121 -261 7 -34 83 -262 171 -507 87
-245 159 -446 159 -446 0 -1 -26 11 -57 27 -126 62 -219 58 -295 -10 -68 -61
-84 -131 -52 -224 21 -63 97 -133 269 -248 77 -51 197 -135 267 -187 172 -127
309 -209 393 -236 93 -29 295 -31 398 -3 161 43 282 109 383 210 85 86 128
158 154 262 25 97 25 151 0 275 -69 337 -176 623 -267 715 -82 81 -183 110
-285 80 -53 -15 -58 -15 -103 5 -57 25 -160 28 -223 5 -40 -14 -46 -14 -75 1
-45 24 -170 24 -215 0 l-33 -18 -33 73 c-18 40 -57 136 -86 213 -29 77 -66
159 -82 183 -42 61 -118 102 -188 101 -30 0 -66 -5 -79 -10z m148 -136 c22
-21 51 -81 110 -228 43 -110 100 -247 125 -305 25 -58 70 -166 98 -240 49
-126 55 -135 81 -138 33 -4 57 13 57 39 0 17 -36 119 -99 276 l-21 53 40 20
c46 23 88 25 133 6 29 -11 39 -28 86 -137 29 -68 62 -133 72 -144 18 -18 21
-19 47 -5 15 9 28 24 30 34 2 10 -18 67 -44 127 -26 60 -45 112 -42 115 16 15
86 23 123 13 67 -18 81 -33 121 -134 31 -78 42 -97 62 -102 63 -16 75 33 32
136 -16 41 -30 75 -30 77 0 11 79 15 111 5 105 -31 187 -198 278 -561 51 -203
59 -274 37 -358 -24 -93 -51 -140 -130 -217 -131 -130 -326 -202 -521 -192
-66 3 -117 11 -151 24 -73 28 -202 108 -330 204 -60 45 -174 126 -254 179
-226 152 -260 184 -260 247 0 36 47 83 83 83 37 -1 126 -42 246 -114 117 -71
130 -74 155 -34 7 12 -22 102 -112 349 -184 508 -272 759 -283 811 -12 54 1
111 29 128 34 19 90 11 121 -17z"/>
<path d="M1095 2616 c-144 -57 -170 -80 -147 -130 20 -44 48 -42 197 18 76 30
142 60 146 68 25 39 -7 100 -51 97 -8 0 -73 -24 -145 -53z"/>
</g>
</svg>
